<?xml version="1.0" encoding="utf-8"?>
<!-- Generator: Adobe Illustrator 22.1.0, SVG Export Plug-In . SVG Version: 6.00 Build 0)  -->
<svg version="1.1" id="Layer_1" xmlns="http://www.w3.org/2000/svg" xmlns:xlink="http://www.w3.org/1999/xlink" x="0px" y="0px"
	 viewBox="0 0 519.3 175.8" enable-background="new 0 0 519.3 175.8" xml:space="preserve">
<g>
	<linearGradient id="SVGID_1_" gradientUnits="userSpaceOnUse" x1="31.1632" y1="17.5086" x2="89.1443" y2="27.7322">
		<stop  offset="5.000000e-02" style="stop-color:#82BC41"/>
		<stop  offset="0.3222" style="stop-color:#BFD839"/>
		<stop  offset="0.5" style="stop-color:#E3E935"/>
		<stop  offset="0.6516" style="stop-color:#C6DB39"/>
		<stop  offset="0.95" style="stop-color:#82BC41"/>
	</linearGradient>
	<path fill="url(#SVGID_1_)" d="M85.5,43.3C89.4,20,57.2,16.7,29.6,26.5c0.5-3.1,4.6-11.7,5.1-12.4C59.5-4.3,98.4,13.1,85.5,43.3z"
		/>
	<linearGradient id="SVGID_2_" gradientUnits="userSpaceOnUse" x1="54.0019" y1="103.1529" x2="92.1328" y2="21.3811">
		<stop  offset="0.13" style="stop-color:#82BC41"/>
		<stop  offset="0.8778" style="stop-color:#E3E935"/>
	</linearGradient>
	<path fill="url(#SVGID_2_)" d="M82.5,16.9c17.1,17.7,11.6,40.6-1.8,52.7c-10.8,9.8,1.5,25.8-7,34.7c-0.1,0.1-1.4,0.9-2,1.3
		c-12.8,3.9-28.7-7.7-28.7-14c0-31.3,23.6-30.8,36-39.4C87.9,46.1,89.3,31.2,82.5,16.9z"/>
	<linearGradient id="SVGID_3_" gradientUnits="userSpaceOnUse" x1="50.8302" y1="115.8958" x2="16.2023" y2="20.7565">
		<stop  offset="0" style="stop-color:#E3E935"/>
		<stop  offset="1.628352e-02" style="stop-color:#DCE636"/>
		<stop  offset="0.109" style="stop-color:#BCD73A"/>
		<stop  offset="0.2048" style="stop-color:#A2CB3D"/>
		<stop  offset="0.3038" style="stop-color:#90C33F"/>
		<stop  offset="0.4078" style="stop-color:#86BE41"/>
		<stop  offset="0.5252" style="stop-color:#82BC41"/>
		<stop  offset="0.6142" style="stop-color:#87BE40"/>
		<stop  offset="0.7142" style="stop-color:#94C43F"/>
		<stop  offset="0.8194" style="stop-color:#ABCF3C"/>
		<stop  offset="0.9275" style="stop-color:#CADD38"/>
		<stop  offset="1" style="stop-color:#E3E935"/>
	</linearGradient>
	<path fill="url(#SVGID_3_)" d="M34.9,13.9C23.5,22.7,10.3,36.2,7.6,49.8c-2.9,14.8,3.1,44.7,21.1,58.8c12.1,9.5,33.9,7.2,45.2-4.4
		c-16.8,8.6-43.6-16.7-46.5-47.1C24.8,29.5,34.9,13.9,34.9,13.9z"/>
</g>
<g>
	<path fill="#425563" d="M136.5,123.7h-3.2v11.5h4.9c2,0,2.1,0.2,2.1,2.2V148c0,2,0.1,2.2-1.9,2.2h-28.6c-2,0-2-0.2-2-2.2v-10.7
		c0-2,0.2-2.2,2.2-2.2h3.2v-41H110c-2,0-2.2-0.4-2.2-2.2V81.3c0-1.8,0.3-2.1,2.3-2.1h25.6c10,0,15.7,1.1,20.1,4.9
		c4,3.5,6.5,9.5,6.5,15.6C162.3,114.1,152,123.7,136.5,123.7z M136.2,93.7h-2.9v14.9h2.4c6.4,0,8.5-2.2,8.5-7.9
		C144.1,95.3,141.3,93.7,136.2,93.7z"/>
	<path fill="#425563" d="M208.9,128.5H180c0.6,7.2,3.5,10,8.7,10c6.2,0,9.4-1.7,13.4-3.8c1.3-0.7,1.9-0.4,2.5,0.7l4.7,8.7
		c0.5,0.9,0.4,1.2-0.7,2c-7,4.8-14.6,5.9-20.3,5.9c-17.2,0-26-10.1-26-26.9c0-15.9,9.5-27.7,25.5-27.7c16.4,0,23.2,10.7,23.2,29.7
		C210.8,128.6,210.2,128.5,208.9,128.5z M187,108.7c-4.3,0-6,2.2-7,8.7h13.5C193,110.6,191,108.7,187,108.7z"/>
	<path fill="#425563" d="M252.1,114c-0.3,0.7-0.7,1.3-1.6,0.9c-1.2-0.6-2.6-2-5.8-2c-2.2,0-3,0.3-5.6,3v19.7h4
		c1.1,0,1.4,0.3,1.4,1.3v11.9c0,1.1-0.3,1.3-1.4,1.3H217c-1.1,0-1.3-0.2-1.3-1.3v-11.9c0-1,0.2-1.3,1.3-1.3h3.2v-18.9
		c0-0.5,0-2.2-0.2-3.1h-3.7c-1.1,0-1.4-0.2-1.4-1.3v-11.9c0-1,0.3-1.4,1.4-1.4h15.8c1.8,0,2.6,0.8,3.9,4.9c3.4-3.7,6.5-6.4,11.5-6.4
		c3.5,0,6.8,1.2,8.9,3.9c0.5,0.6,0.2,1.3,0.1,1.7L252.1,114z"/>
	<path fill="#425563" d="M300.2,90.7c-0.3,1.1-1.1,1.6-2.6,0.9c-2.1-0.8-4.2-2.1-7.9-2.1c-2.7,0-3.7,1.7-3.7,5.3v4.2h11.7
		c1.8,0,2,0.3,1.7,2.2l-1.9,10.6c-0.2,0.9-0.4,1-1.7,1H286v22.8h5.7c1.1,0,1.4,0.3,1.4,1.3v11.9c0,1.1-0.3,1.3-1.4,1.3h-29.1
		c-1.1,0-1.3-0.2-1.3-1.3v-11.9c0-1,0.2-1.3,1.3-1.3h5v-22.8h-5.5c-1.4,0-1.7-0.1-1.7-2.2v-9.9c0-1.2,0.2-1.7,1.9-1.7h5.3v-4
		c0-12.7,7-19.8,19.9-19.8c4.2,0,10.4,1.1,14.8,3.6c0.9,0.5,0.9,0.7,0.6,2.1L300.2,90.7z"/>
	<path fill="#425563" d="M347.6,128.5h-28.9c0.6,7.2,3.5,10,8.7,10c6.2,0,9.4-1.7,13.4-3.8c1.3-0.7,1.9-0.4,2.5,0.7l4.7,8.7
		c0.5,0.9,0.4,1.2-0.7,2c-7,4.8-14.6,5.9-20.3,5.9c-17.2,0-26-10.1-26-26.9c0-15.9,9.5-27.7,25.5-27.7c16.4,0,23.2,10.7,23.2,29.7
		C349.6,128.6,348.9,128.5,347.6,128.5z M325.8,108.7c-4.3,0-6,2.2-7,8.7h13.5C331.8,110.6,329.8,108.7,325.8,108.7z"/>
	<path fill="#425563" d="M396.3,146.8c-3.4,3.8-13,5.2-17.8,5.2c-16.5,0-25.2-10.5-25.2-26.5c0-16.9,9.7-28.2,26.8-28.2
		c5.8,0,10.8,0.6,15.5,4.6c1.1,0.9,0.8,2.1,0.8,2.6v12.8c0,1.1-0.2,1.4-1.3,1.4h-12.4c-1,0-1.3-0.3-1.3-1.4V111
		c-0.5,0-0.6-0.1-1.1-0.1c-5.7,0-8.4,3.6-8.4,14.1c0,10,3.2,13.1,8.5,13.1c3.4,0,6.7-1.7,9.9-2.9c1.8-0.7,2.3-1.1,3,0.6l3.3,8.3
		C397.1,145.4,397.2,145.7,396.3,146.8z"/>
	<path fill="#425563" d="M441.6,148.6c-3.9,1.9-11,3.3-15.3,3.3c-13.1,0-17.3-7.6-17.3-17.8v-21.4h-6.8c-1.7,0-1.7,0.1-1.7-2V101
		c0-2-0.1-2,2-2h6.5V85.6c0-1.2,0.2-1.6,1.6-1.7l15.3-1.1c1.8-0.1,1.8,0,1.8,1.2v15h12.2c2,0,1.9,0.4,1.7,1.6l-1.8,10.7
		c-0.2,1.2-0.7,1.4-1.9,1.4h-10.2v21c0,2.3,1.2,3,2.7,3c1.8,0,4.6-0.7,8.1-2.3c0.9-0.4,1.7-0.4,2,0.8l2.5,10.6
		C443.3,147.4,443.3,147.8,441.6,148.6z"/>
	<path fill="#425563" d="M470.3,151.9c-16.6,0-25.4-10.9-25.4-27.4c0-16.1,9.1-27.2,25.5-27.2c16.4,0,25.2,11.1,25.2,27.4
		C495.6,140.7,486.3,151.9,470.3,151.9z M470.2,109.9c-4.3,0-6.8,3.1-6.8,14.8c0,11.5,2.5,14.6,6.8,14.6s6.9-3.2,6.9-14.7
		C477.1,113.1,474.5,109.9,470.2,109.9z"/>
</g>
</svg>
